<?xml version="1.0" encoding="utf-8"?>
<!-- Generator: Adobe Illustrator 17.0.0, SVG Export Plug-In . SVG Version: 6.00 Build 0)  -->
<!DOCTYPE svg PUBLIC "-//W3C//DTD SVG 1.1//EN" "http://www.w3.org/Graphics/SVG/1.1/DTD/svg11.dtd">
<svg version="1.1" id="Layer_1" xmlns="http://www.w3.org/2000/svg" xmlns:xlink="http://www.w3.org/1999/xlink" x="0px" y="0px"
	 width="595.28px" height="841.89px" viewBox="0 0 595.28 841.89" enable-background="new 0 0 595.28 841.89" xml:space="preserve">
<g>
	<g>
		<g>
			<path fill="#003366" d="M90.529,474.159v-4.352c0-1.981-0.968-2.971-2.902-2.971h-1.035c-1.889,0-2.832,0.99-2.832,2.971v8.22
				c0,0.923,0.182,1.544,0.551,1.867c0.368,0.323,0.968,0.737,1.797,1.244l6.286,3.384c1.383,0.784,2.36,1.394,2.936,1.831
				c0.576,0.439,1.026,0.968,1.349,1.589c0.32,0.623,0.482,1.808,0.482,3.559v10.57c0,5.573-2.671,8.359-8.013,8.359H85.07
				c-5.295,0-7.944-3.039-7.944-9.118v-2.487h6.633v2.694c0,1.934,0.988,2.902,2.969,2.902h1.174c1.75,0,2.626-0.968,2.626-2.902
				v-8.428c0-0.921-0.186-1.542-0.553-1.864c-0.37-0.323-0.966-0.737-1.795-1.244l-6.288-3.525c-1.38-0.735-2.382-1.358-3.005-1.864
				c-0.621-0.506-1.071-1.163-1.347-1.97c-0.276-0.804-0.415-1.853-0.415-3.142v-10.156c0-5.665,2.649-8.497,7.944-8.497h4.146
				c5.295,0,7.944,2.832,7.944,8.497v4.836H90.529z"/>
			<path fill="#003366" d="M139.371,510.428h-6.633v-41.105c0-5.665,2.649-8.497,7.944-8.497h4.975c5.295,0,7.944,2.832,7.944,8.497
				v41.105h-6.631v-18.169h-7.599V510.428z M146.97,486.249v-16.511c0-1.934-0.968-2.902-2.902-2.902h-1.795
				c-1.936,0-2.902,0.968-2.902,2.902v16.511H146.97z"/>
			<path fill="#003366" d="M200.438,466.836v43.592h-6.631v-43.592h-6.357v-6.01h19.343v6.01H200.438z"/>
			<path fill="#003366" d="M253.359,510.428h-6.633v-18.239l-8.152-31.364h6.566l4.97,21.555h0.211l4.491-21.555h6.561
				l-8.013,31.364V510.428z"/>
			<path fill="#003366" d="M295.568,460.826h12.988c5.064,0,7.597,2.832,7.597,8.497v12.229c0,4.329-1.313,7.07-3.935,8.22
				l4.625,20.657h-6.283l-4.356-20.034h-4.007v20.034h-6.629V460.826z M302.197,484.729h4.356c1.976,0,2.967-1.199,2.967-3.592
				v-10.709c0-2.393-0.99-3.592-2.967-3.592h-4.356V484.729z"/>
			<path fill="#003366" d="M365.825,484.799v-23.973h6.633v49.602h-6.633v-9.88l-7.117-22.59v32.471h-6.629v-49.602h6.629
				L365.825,484.799z"/>
			<path fill="#003366" d="M415.084,502v8.428h-7.05V502H415.084z"/>
			<path fill="#003366" d="M448.241,504.418h4.352c1.981,0,2.971-1.197,2.971-3.592v-40h6.633v41.244
				c0,5.573-2.555,8.359-7.668,8.359h-6.288V504.418z"/>
			<path fill="#003366" d="M511.521,474.159v-4.352c0-1.981-0.968-2.971-2.904-2.971h-1.035c-1.887,0-2.832,0.99-2.832,2.971v8.22
				c0,0.923,0.184,1.544,0.556,1.867c0.367,0.323,0.964,0.737,1.793,1.244l6.288,3.384c1.38,0.784,2.362,1.394,2.936,1.831
				c0.578,0.439,1.026,0.968,1.349,1.589c0.323,0.623,0.484,1.808,0.484,3.559v10.57c0,5.573-2.671,8.359-8.013,8.359h-4.078
				c-5.297,0-7.944-3.039-7.944-9.118v-2.487h6.631v2.694c0,1.934,0.99,2.902,2.971,2.902h1.174c1.752,0,2.626-0.968,2.626-2.902
				v-8.428c0-0.921-0.184-1.542-0.551-1.864c-0.372-0.323-0.968-0.737-1.797-1.244l-6.288-3.525
				c-1.38-0.735-2.387-1.358-3.005-1.864c-0.623-0.506-1.071-1.163-1.349-1.97c-0.278-0.804-0.412-1.853-0.412-3.142v-10.156
				c0-5.665,2.646-8.497,7.944-8.497h4.146c5.297,0,7.946,2.832,7.946,8.497v4.836H511.521z"/>
		</g>
	</g>
	<g>
		<g>
			<path fill="#003366" d="M256.813,419.001c5.757-0.771,11.878-1.811,18.267-3.116c9.396-1.92,19.372-4.414,29.626-7.474
				c17.964-5.359,34.264-11.703,47.51-18.181c0.505-0.247,0.994-0.494,1.489-0.741c0.29-4.695-0.015-9.502-1.002-14.33
				c-6.039-29.555-34.893-48.619-64.449-42.581c-29.555,6.039-48.619,34.893-42.581,64.449c1.698,8.308,5.198,15.787,10.01,22.113
				C256.065,419.091,256.43,419.053,256.813,419.001z"/>
			<path fill="#003366" d="M306.867,418.307c-14.466,4.316-28.5,7.825-41.672,10.528c12.208,9.699,28.457,14.137,44.928,10.772
				c20.019-4.09,35.211-18.653,41.063-36.805C337.706,408.292,322.767,413.563,306.867,418.307z"/>
		</g>
		<path fill="#003366" d="M341.49,351.522c1.657,2.024,3.175,4.174,4.538,6.443c25.187-0.779,42.629,3.043,44.272,11.083
			c1.67,8.176-13.409,18.745-37.583,28.021c-13.903,5.335-30.804,10.243-49.281,14.018c-17.718,3.62-34.515,5.715-48.987,6.363
			c-26.861,1.203-45.695-2.591-47.405-10.96c-1.682-8.23,13.612-18.885,38.067-28.205c0.382-2.644,0.956-5.24,1.711-7.771
			c-43.438,13.347-72.578,30.081-70.108,42.172c2.505,12.26,36.775,16.161,82.926,11.087c13.841-1.522,28.738-3.842,44.183-6.997
			c16.715-3.415,32.474-7.474,46.663-11.891c42.641-13.272,71.098-29.773,68.655-41.731
			C416.733,351.368,384.956,347.307,341.49,351.522z"/>
	</g>
</g>
</svg>
